<?xml version="1.0" encoding="utf-8"?>
<!-- Generator: Adobe Illustrator 24.3.0, SVG Export Plug-In . SVG Version: 6.00 Build 0)  -->
<svg version="1.1" id="Layer_1" xmlns="http://www.w3.org/2000/svg" xmlns:xlink="http://www.w3.org/1999/xlink" x="0px" y="0px"
	 viewBox="0 0 20 20" style="enable-background:new 0 0 20 20;" xml:space="preserve">
<style type="text/css">
	.st0{fill:#CBA344;}
	.st1{fill:#FFFFFF;}
</style>
<path class="st0" d="M14.3,8.5h-2c-0.2,0-0.3-0.1-0.3-0.3v-2c0-0.2,0.1-0.3,0.3-0.3h2c0.2,0,0.3,0.1,0.3,0.3v2
	C14.7,8.4,14.5,8.5,14.3,8.5z M12.6,7.9H14V6.5h-1.3V7.9z"/>
<path class="st0" d="M17.7,8.5h-2c-0.2,0-0.3-0.1-0.3-0.3v-2c0-0.2,0.1-0.3,0.3-0.3h2C17.8,5.9,18,6,18,6.2v2
	C18,8.4,17.8,8.5,17.7,8.5z M16,7.9h1.3V6.5H16V7.9z"/>
<path class="st0" d="M4.3,11.9h-2c-0.2,0-0.3-0.1-0.3-0.3v-2c0-0.2,0.1-0.3,0.3-0.3h2c0.2,0,0.3,0.1,0.3,0.3v2
	C4.6,11.7,4.5,11.9,4.3,11.9z M2.6,11.2H4V9.9H2.6V11.2z"/>
<path class="st0" d="M7.6,11.9h-2c-0.2,0-0.3-0.1-0.3-0.3v-2c0-0.2,0.1-0.3,0.3-0.3h2C7.8,9.2,8,9.3,8,9.5v2
	C8,11.7,7.8,11.9,7.6,11.9z M6,11.2h1.3V9.9H6V11.2z"/>
<path class="st0" d="M11,11.9H9c-0.2,0-0.3-0.1-0.3-0.3v-2c0-0.2,0.1-0.3,0.3-0.3h2c0.2,0,0.3,0.1,0.3,0.3v2
	C11.3,11.7,11.2,11.9,11,11.9z M9.3,11.2h1.3V9.9H9.3V11.2z"/>
<path class="st0" d="M4.3,15.2h-2c-0.2,0-0.3-0.1-0.3-0.3v-2c0-0.2,0.1-0.3,0.3-0.3h2c0.2,0,0.3,0.1,0.3,0.3v2
	C4.6,15.1,4.5,15.2,4.3,15.2z M2.6,14.5H4v-1.3H2.6V14.5z"/>
<path class="st0" d="M7.6,15.2h-2c-0.2,0-0.3-0.1-0.3-0.3v-2c0-0.2,0.1-0.3,0.3-0.3h2c0.2,0,0.3,0.1,0.3,0.3v2
	C8,15.1,7.8,15.2,7.6,15.2z M6,14.5h1.3v-1.3H6V14.5z"/>
<path class="st0" d="M11,15.2H9c-0.2,0-0.3-0.1-0.3-0.3v-2c0-0.2,0.1-0.3,0.3-0.3h2c0.2,0,0.3,0.1,0.3,0.3v2
	C11.3,15.1,11.2,15.2,11,15.2z M9.3,14.5h1.3v-1.3H9.3V14.5z"/>
<path class="st0" d="M4.3,18.5h-2c-0.2,0-0.3-0.1-0.3-0.3v-2c0-0.2,0.1-0.3,0.3-0.3h2c0.2,0,0.3,0.1,0.3,0.3v2
	C4.6,18.4,4.5,18.5,4.3,18.5z M2.6,17.9H4v-1.3H2.6V17.9z"/>
<path class="st0" d="M7.6,18.5h-2c-0.2,0-0.3-0.1-0.3-0.3v-2c0-0.2,0.1-0.3,0.3-0.3h2C7.8,15.9,8,16,8,16.2v2
	C8,18.4,7.8,18.5,7.6,18.5z M6,17.9h1.3v-1.3H6V17.9z"/>
<path class="st0" d="M11,18.5H9c-0.2,0-0.3-0.1-0.3-0.3v-2c0-0.2,0.1-0.3,0.3-0.3h2c0.2,0,0.3,0.1,0.3,0.3v2
	C11.3,18.4,11.2,18.5,11,18.5z M9.3,17.9h1.3v-1.3H9.3V17.9z"/>
<path class="st0" d="M14.3,11.9h-2c-0.2,0-0.3-0.1-0.3-0.3v-2c0-0.2,0.1-0.3,0.3-0.3h2c0.2,0,0.3,0.1,0.3,0.3v2
	C14.7,11.7,14.5,11.9,14.3,11.9z M12.6,11.2H14V9.9h-1.3V11.2z"/>
<path class="st0" d="M14.3,15.2h-2c-0.2,0-0.3-0.1-0.3-0.3v-2c0-0.2,0.1-0.3,0.3-0.3h2c0.2,0,0.3,0.1,0.3,0.3v2
	C14.7,15.1,14.5,15.2,14.3,15.2z M12.6,14.5H14v-1.3h-1.3V14.5z"/>
<path class="st0" d="M14.3,18.5h-2c-0.2,0-0.3-0.1-0.3-0.3v-2c0-0.2,0.1-0.3,0.3-0.3h2c0.2,0,0.3,0.1,0.3,0.3v2
	C14.7,18.4,14.5,18.5,14.3,18.5z M12.6,17.9H14v-1.3h-1.3V17.9z"/>
<path class="st0" d="M17.7,11.9h-2c-0.2,0-0.3-0.1-0.3-0.3v-2c0-0.2,0.1-0.3,0.3-0.3h2c0.2,0,0.3,0.1,0.3,0.3v2
	C18,11.7,17.8,11.9,17.7,11.9z M16,11.2h1.3V9.9H16V11.2z"/>
<path class="st0" d="M17.7,15.2h-2c-0.2,0-0.3-0.1-0.3-0.3v-2c0-0.2,0.1-0.3,0.3-0.3h2c0.2,0,0.3,0.1,0.3,0.3v2
	C18,15.1,17.8,15.2,17.7,15.2z M16,14.5h1.3v-1.3H16V14.5z"/>
<path class="st0" d="M17.7,18.5h-2c-0.2,0-0.3-0.1-0.3-0.3v-2c0-0.2,0.1-0.3,0.3-0.3h2c0.2,0,0.3,0.1,0.3,0.3v2
	C18,18.4,17.8,18.5,17.7,18.5z M16,17.9h1.3v-1.3H16V17.9z"/>
<path class="st1" d="M19.7,4.9H8.3C8.1,4.9,8,4.7,8,4.5C8,3.6,7.6,2.7,7,2.1C6.9,2,6.9,1.8,7,1.7C7,1.6,7.1,1.5,7.3,1.5h11.3
	c0.8,0,1.4,0.6,1.4,1.4v1.6C20,4.7,19.9,4.9,19.7,4.9z M8.6,4.2h10.7V2.9c0-0.4-0.3-0.8-0.8-0.8H8C8.3,2.8,8.6,3.5,8.6,4.2z"/>
<path class="st1" d="M18.7,20.2H1.3c-0.7,0-1.3-0.6-1.3-1.3V4.5c0-0.2,0.1-0.3,0.3-0.3c0.2,0,0.3,0.1,0.3,0.3c0,2,1.6,3.7,3.7,3.7
	S8,6.5,8,4.5c0-0.2,0.1-0.3,0.3-0.3h11.4c0.2,0,0.3,0.1,0.3,0.3v14.4C20,19.6,19.4,20.2,18.7,20.2z M0.6,6.8v12
	c0,0.4,0.3,0.7,0.7,0.7h17.4c0.4,0,0.7-0.3,0.7-0.7v-14H8.6c-0.2,2.2-2,4-4.3,4C2.8,8.9,1.4,8,0.6,6.8z"/>
<path class="st0" d="M4.3,1.8C4.1,1.8,4,1.7,4,1.5v-1c0-0.2,0.1-0.3,0.3-0.3s0.3,0.1,0.3,0.3v1C4.6,1.7,4.5,1.8,4.3,1.8z"/>
<path class="st0" d="M4.3,8.9C4.1,8.9,4,8.7,4,8.5v-1c0-0.2,0.1-0.3,0.3-0.3s0.3,0.1,0.3,0.3v1C4.6,8.7,4.5,8.9,4.3,8.9z"/>
<path class="st0" d="M8.3,4.9h-1C7.1,4.9,7,4.7,7,4.5s0.1-0.3,0.3-0.3h1c0.2,0,0.3,0.1,0.3,0.3S8.5,4.9,8.3,4.9z"/>
<path class="st0" d="M1.3,4.9h-1C0.1,4.9,0,4.7,0,4.5s0.1-0.3,0.3-0.3h1c0.2,0,0.3,0.1,0.3,0.3S1.5,4.9,1.3,4.9z"/>
<path class="st0" d="M2,2.5c-0.1,0-0.2,0-0.2-0.1L1.2,1.9c-0.1-0.1-0.1-0.3,0-0.5c0.1-0.1,0.3-0.1,0.5,0l0.5,0.5
	c0.1,0.1,0.1,0.3,0,0.5C2.1,2.5,2,2.5,2,2.5z"/>
<path class="st0" d="M7.1,7.7C7,7.7,7,7.7,6.9,7.6L6.4,7.1C6.3,7,6.3,6.8,6.4,6.6c0.1-0.1,0.3-0.1,0.5,0l0.5,0.5
	c0.1,0.1,0.1,0.3,0,0.5C7.3,7.7,7.2,7.7,7.1,7.7z"/>
<path class="st0" d="M6.6,2.5c-0.1,0-0.2,0-0.2-0.1c-0.1-0.1-0.1-0.3,0-0.5l0.5-0.5c0.1-0.1,0.3-0.1,0.5,0c0.1,0.1,0.1,0.3,0,0.5
	L6.9,2.4C6.8,2.5,6.7,2.5,6.6,2.5z"/>
<path class="st0" d="M1.5,7.7c-0.1,0-0.2,0-0.2-0.1c-0.1-0.1-0.1-0.3,0-0.5l0.5-0.5c0.1-0.1,0.3-0.1,0.5,0c0.1,0.1,0.1,0.3,0,0.5
	L1.7,7.6C1.6,7.7,1.5,7.7,1.5,7.7z"/>
<path class="st0" d="M5.3,4.9h-1C4.1,4.9,4,4.7,4,4.5s0.1-0.3,0.3-0.3h1c0.2,0,0.3,0.1,0.3,0.3S5.5,4.9,5.3,4.9z"/>
<path class="st0" d="M4.3,4.9C4.1,4.9,4,4.7,4,4.5V2.8c0-0.2,0.1-0.3,0.3-0.3s0.3,0.1,0.3,0.3v1.7C4.6,4.7,4.5,4.9,4.3,4.9z"/>
<path class="st0" d="M4.3,8.9C1.9,8.9,0,6.9,0,4.5s1.9-4.3,4.3-4.3s4.3,1.9,4.3,4.3S6.7,8.9,4.3,8.9z M4.3,0.8c-2,0-3.7,1.6-3.7,3.7
	s1.6,3.7,3.7,3.7S8,6.5,8,4.5S6.3,0.8,4.3,0.8z"/>
</svg>
